<svg xmlns="http://www.w3.org/2000/svg" version="1.1" xmlns:xlink="http://www.w3.org/1999/xlink" xmlns:svgjs="http://svgjs.com/svgjs" width="720" height="840" preserveAspectRatio="none" viewBox="0 0 720 840"><g mask="url(&quot;#SvgjsMask1024&quot;)" fill="none"><rect width="720" height="840" x="0" y="0" fill="#0e2a47"></rect><path d="M274.82 788.67L313.36 788.67L313.36 827.21L274.82 827.21z" stroke="rgba(175, 183, 180, 1)"></path><path d="M61.47 769.74L77.13 769.74L77.13 785.4L61.47 785.4z" fill="rgba(0, 163, 104, 1)"></path><path d="M198.48 440.16L216.74 440.16L216.74 458.42L198.48 458.42z" fill="rgba(175, 183, 180, 1)"></path><path d="M302.26 286.65 a49.48 49.48 0 1 0 98.96 0 a49.48 49.48 0 1 0 -98.96 0z" fill="rgba(0, 163, 104, 1)"></path><path d="M510.53 713.85a53.36 53.36 0 1 0 94.77-49.07z" stroke="rgba(0, 163, 104, 1)"></path><path d="M601.65 581.59a49.21 49.21 0 1 0-94.85-26.27z" fill="rgba(0, 163, 104, 1)"></path><path d="M440.13 197.12a28.89 28.89 0 1 0-57.27 7.64z" fill="rgba(0, 163, 104, 1)"></path><path d="M458.93 609.29L463.55 609.29L463.55 613.91L458.93 613.91z" fill="rgba(0, 163, 104, 1)"></path><path d="M6.28 539.94L34.08 539.94L34.08 556.21L6.28 556.21z" stroke="rgba(0, 163, 104, 1)"></path><path d="M455.58 582.59a9.19 9.19 0 1 0 9.76-15.58z" stroke="rgba(175, 183, 180, 1)"></path><path d="M372.32 800.63 a66.4 66.4 0 1 0 132.8 0 a66.4 66.4 0 1 0 -132.8 0z" fill="rgba(0, 163, 104, 1)"></path><path d="M505.63 505.9L520.54 505.9L520.54 533.87L505.63 533.87z" fill="rgba(0, 163, 104, 1)"></path><path d="M259.54 723.85L279.36 723.85L279.36 743.67L259.54 743.67z" stroke="rgba(175, 183, 180, 1)"></path><path d="M266.25 481.81a42.84 42.84 0 1 0 74.21-42.82z" fill="rgba(175, 183, 180, 1)"></path><path d="M623.47 248.84L670.13 248.84L670.13 294.31L623.47 294.31z" fill="rgba(0, 163, 104, 1)"></path></g><defs><mask id="SvgjsMask1024"><rect width="720" height="840" fill="#ffffff"></rect></mask></defs></svg>